<svg xmlns="http://www.w3.org/2000/svg" viewBox="0 0 62.24 90"><defs><style>.cls-1{fill:#010101;}</style></defs><title>bathroom</title><g id="Layer_2" data-name="Layer 2"><g id="Layer_1-2" data-name="Layer 1"><path class="cls-1" d="M57.26,38.54l2.42-28.23c0-.08,0-.16,0-.23A10.09,10.09,0,0,0,49.61,0h-37A10.09,10.09,0,0,0,2.55,10.08c0,.08,0,.16,0,.23L5,38.54A7.62,7.62,0,0,0,6.71,53.25V57A24.52,24.52,0,0,0,15,75.33L10.29,86.17A2.75,2.75,0,0,0,12.81,90H49.42a2.75,2.75,0,0,0,2.52-3.83L47.28,75.33A24.52,24.52,0,0,0,55.53,57V53.25a7.62,7.62,0,0,0,1.74-14.71ZM12.63,5.49h37A4.59,4.59,0,0,1,54.2,10l-2.4,28.09H10.45L8,10A4.59,4.59,0,0,1,12.63,5.49ZM42.31,72.3a2.75,2.75,0,0,0-.9,3.3l3.84,8.91H17l3.84-8.91a2.74,2.74,0,0,0-.9-3.3A19,19,0,0,1,12.2,57V53.31H50V57A19,19,0,0,1,42.31,72.3ZM54.61,47.82h-47a2.13,2.13,0,0,1,0-4.27h47a2.13,2.13,0,0,1,0,4.27Z"/></g></g></svg>