<svg xmlns="http://www.w3.org/2000/svg" viewBox="0 0 23.5 23.5"><defs><style>.cls-1,.cls-2{fill:none;stroke:#636566;stroke-linejoin:round;stroke-width:1.5px;}.cls-2{stroke-linecap:round;}</style></defs><title>bedroom</title><g id="Layer_2" data-name="Layer 2"><g id="Layer_1-2" data-name="Layer 1"><polyline class="cls-1" points="18.9 4.58 20.84 4.58 22.75 16.05 0.75 16.05 2.66 4.58 4.84 4.58"/><path class="cls-2" d="M22.75,20.36a1.43,1.43,0,0,1-1.43,1.43H2.18A1.43,1.43,0,0,1,.75,20.36v-4.3h22Z"/><line class="cls-2" x1="2.34" y1="8.4" x2="21.16" y2="8.4"/><polygon class="cls-2" points="10.36 6.49 4.58 6.49 4.97 3.62 10.41 3.62 10.36 6.49"/><polygon class="cls-2" points="13.38 6.49 19.16 6.49 18.77 3.62 13.32 3.62 13.38 6.49"/><path class="cls-2" d="M2.66,4.58V2.19A1.44,1.44,0,0,1,4.1.75H19.4a1.44,1.44,0,0,1,1.43,1.43V4.58"/><line class="cls-2" x1="3.62" y1="21.79" x2="3.62" y2="22.75"/><line class="cls-2" x1="19.88" y1="21.79" x2="19.88" y2="22.75"/><line class="cls-2" x1="10.42" y1="4.69" x2="13.32" y2="4.69"/></g></g></svg>