<svg xmlns="http://www.w3.org/2000/svg" viewBox="0 0 36 36"><defs><style>.cls-1,.cls-2,.cls-3{fill:none;stroke:#010101;}.cls-1,.cls-2{stroke-linejoin:round;}.cls-2{stroke-linecap:round;}.cls-3{stroke-miterlimit:10;}</style></defs><title>bedroom_1</title><g id="Layer_2" data-name="Layer 2"><g id="Layer_1-2" data-name="Layer 1"><polyline class="cls-1" points="25.15 10.83 27.09 10.83 29 22.3 7 22.3 8.91 10.83 11.09 10.83"/><path class="cls-2" d="M29,26.61A1.43,1.43,0,0,1,27.57,28H8.43A1.43,1.43,0,0,1,7,26.61V22.3H29Z"/><line class="cls-2" x1="8.59" y1="14.65" x2="27.41" y2="14.65"/><polygon class="cls-2" points="16.61 12.74 10.83 12.74 11.22 9.87 16.66 9.87 16.61 12.74"/><polygon class="cls-2" points="19.64 12.74 25.41 12.74 25.02 9.87 19.57 9.87 19.64 12.74"/><path class="cls-2" d="M8.91,10.83V8.44A1.44,1.44,0,0,1,10.35,7h15.3a1.44,1.44,0,0,1,1.43,1.43v2.39"/><line class="cls-2" x1="9.87" y1="28.04" x2="9.87" y2="29"/><line class="cls-2" x1="26.13" y1="28.04" x2="26.13" y2="29"/><line class="cls-2" x1="16.67" y1="10.94" x2="19.57" y2="10.94"/><circle class="cls-3" cx="18" cy="18" r="17.5"/></g></g></svg>