<svg xmlns="http://www.w3.org/2000/svg" viewBox="0 0 90 58.06"><defs><style>.cls-1{fill:#010101;}</style></defs><title>bedroom</title><g id="Layer_2" data-name="Layer 2"><g id="Layer_1-2" data-name="Layer 1"><path class="cls-1" d="M79.35,21.48V2.32A2.35,2.35,0,0,0,77,0a2.5,2.5,0,0,0-2.32,2.32v2.9H15.29V2.32A2.35,2.35,0,0,0,13,0a2.5,2.5,0,0,0-2.32,2.32V21.68C6,22.45,0,25.74,0,34.45V55.74a2.35,2.35,0,0,0,2.32,2.32,2.5,2.5,0,0,0,2.32-2.32V47.42H85.35v8.32a2.35,2.35,0,0,0,2.32,2.32A2.5,2.5,0,0,0,90,55.74V34.45C90,25.74,84,22.26,79.35,21.48Zm-32.13-.19h0a3,3,0,0,1,2.9-3.1H71.42a3,3,0,0,1,2.9,2.9v.19Zm-31.94,0h0a3,3,0,0,1,2.9-3.1H39.48a3,3,0,0,1,2.9,2.9v.19ZM74.52,10.06v3.87a7.77,7.77,0,0,0-2.9-.58H50.32a8,8,0,0,0-5.42,2.13,7.6,7.6,0,0,0-5.42-2.13H18.19a7.77,7.77,0,0,0-2.9.58V10.06ZM4.65,42.58V34.26c0-7.94,7.35-8.32,8.32-8.32H77c.77,0,8.32.19,8.32,8.32v8.32Z"/></g></g></svg>