<svg xmlns="http://www.w3.org/2000/svg" viewBox="0 0 90 60.3"><defs><style>.cls-1{fill:#010101;}</style></defs><title>cafe</title><g id="Layer_2" data-name="Layer 2"><g id="Layer_1-2" data-name="Layer 1"><path class="cls-1" d="M80.37,40.66a92.94,92.94,0,0,0-18.45-3.13l.66-1.46a42.39,42.39,0,0,0,4.54-17.47c.15-3.87.17-6.73,0-8.49a7.64,7.64,0,0,0-.44-2.36c-.09-2.63-2.62-4.66-7.55-6A54.39,54.39,0,0,0,45.05,0c-7.63,0-20.44,1.6-20.89,7.56a8.36,8.36,0,0,0-.46,2.67c-.06,1.05-.08,2.43-.06,4.13A9.22,9.22,0,0,0,22.23,14a8.7,8.7,0,0,0-10.15,6.93,10.64,10.64,0,0,0,2.3,8.21,17.58,17.58,0,0,0,13.52,6l.41.9.63,1.39C16.85,38.4,0,41.07,0,48.54c0,3.9,4.69,6.83,14.35,8.95A149.82,149.82,0,0,0,45,60.29a149.82,149.82,0,0,0,30.65-2.8C85.3,55.36,90,52.44,90,48.54,90,45.21,86.85,42.63,80.37,40.66ZM18.14,26.19a6,6,0,0,1-1.38-4.4,3.93,3.93,0,0,1,4.59-3.13,4.17,4.17,0,0,1,2.51,1.47,39.16,39.16,0,0,0,2,10,11.72,11.72,0,0,1-7.73-3.95ZM45.05,4.77A34.5,34.5,0,0,1,61.72,7.88,34.49,34.49,0,0,1,45.05,11a29.86,29.86,0,0,1-16-3.11A29.86,29.86,0,0,1,45.05,4.77ZM28.53,18.4c-.09-2.36-.12-4.13-.12-5.44a44.35,44.35,0,0,0,16.65,2.8,54.39,54.39,0,0,0,14.13-1.7,22.27,22.27,0,0,0,3.3-1.18c0,1.3,0,3.08-.12,5.52a37.77,37.77,0,0,1-4.12,15.68A24.87,24.87,0,0,0,55.3,44.21a9.48,9.48,0,0,1-3.24,2.12,17.56,17.56,0,0,1-7,1.54,13,13,0,0,1-9.46-3.58,24.74,24.74,0,0,0-2.95-10.21A37.77,37.77,0,0,1,28.53,18.4ZM73.64,53A148.88,148.88,0,0,1,45,55.52,148.88,148.88,0,0,1,16.36,53C7.66,51.25,5,49.16,4.77,48.51c.11-.39,1.47-1.93,6.85-3.48a96.18,96.18,0,0,1,19-2.93,12,12,0,0,1,.26,2.45v.26c.3,3.92,7.31,7.83,14.21,7.83a22.33,22.33,0,0,0,9.84-2.38c1.93-1,5.17-3,5.17-5.7a12,12,0,0,1,.24-2.38,93.17,93.17,0,0,1,18.32,2.93c5.18,1.53,6.5,3,6.6,3.4C85,49.16,82.34,51.25,73.64,53Z"/></g></g></svg>