<svg xmlns="http://www.w3.org/2000/svg" viewBox="0 0 24.5 15.5"><defs><style>.cls-1{fill:none;stroke:#636566;stroke-linecap:round;stroke-linejoin:round;stroke-width:1.5px;}</style></defs><title>couch</title><g id="Layer_2" data-name="Layer 2"><g id="Layer_1-2" data-name="Layer 1"><line class="cls-1" x1="2.75" y1="12.75" x2="2.75" y2="14.75"/><line class="cls-1" x1="21.75" y1="12.75" x2="21.75" y2="14.75"/><path class="cls-1" d="M.75,6.75v4a2,2,0,0,0,2,2h19a2,2,0,0,0,2-2v-4"/><path class="cls-1" d="M20.75,6.75v1a1,1,0,0,1-1,1h-15a1,1,0,0,1-1-1v-1"/><path class="cls-1" d="M21.75,5.31V4.75a4,4,0,0,0-4-4h-11a4,4,0,0,0-4,4v.58"/><path class="cls-1" d="M.75,6.75a1.5,1.5,0,0,1,3,0"/><path class="cls-1" d="M23.75,6.75a1.5,1.5,0,0,0-3,0"/><line class="cls-1" x1="11.75" y1="0.75" x2="11.75" y2="8.75"/></g></g></svg>