<svg xmlns="http://www.w3.org/2000/svg" viewBox="0 0 90 60.78"><defs><style>.cls-1{fill:#010101;}</style></defs><title>couch</title><g id="Layer_2" data-name="Layer 2"><g id="Layer_1-2" data-name="Layer 1"><path class="cls-1" d="M90,28.71a11.87,11.87,0,0,0-6.82-10.79v-7A10.91,10.91,0,0,0,72.29,0H17.71A10.91,10.91,0,0,0,6.82,10.89v7A12.1,12.1,0,0,0,0,28.71,11.78,11.78,0,0,0,7,39.5,7.86,7.86,0,0,0,6.82,41v3.05a8.82,8.82,0,0,0,8.35,8.76v5.8a2.14,2.14,0,0,0,4.28,0v-5.8h51v5.8a2.15,2.15,0,0,0,2.14,2.14,2.22,2.22,0,0,0,2.14-2.14v-5.8a8.74,8.74,0,0,0,8.35-8.76V41a6.93,6.93,0,0,0-.2-1.53A11.71,11.71,0,0,0,90,28.71ZM11.1,11a6.5,6.5,0,0,1,6.52-6.52H72.29A6.5,6.5,0,0,1,78.8,11v5.9h-.71A11.86,11.86,0,0,0,66.28,27.69c-3.67-1-9.57-1.83-21-1.83-11.1,0-17.61.92-21.58,2a12,12,0,0,0-11.91-11H11.1ZM4.28,28.71a7.53,7.53,0,1,1,7.53,7.53A7.52,7.52,0,0,1,4.28,28.71ZM78.9,44.19a4.35,4.35,0,0,1-4.38,4.38H15.58a4.35,4.35,0,0,1-4.38-4.38V41.13a.92.92,0,0,1,.1-.51H12a12,12,0,0,0,11.3-8c3.46-1.12,9.67-2.34,22.19-2.34,13,0,18.33,1,21.48,2.14a11.86,11.86,0,0,0,11.3,8.25H79v3.56Zm-.71-7.94a7.53,7.53,0,1,1,7.53-7.53A7.52,7.52,0,0,1,78.19,36.24Z"/></g></g></svg>