<svg xmlns="http://www.w3.org/2000/svg" viewBox="0 0 36 36"><defs><style>.cls-1,.cls-2{fill:none;stroke:#010101;}.cls-1{stroke-linecap:round;stroke-linejoin:round;}.cls-2{stroke-miterlimit:10;}</style></defs><title>couch_1</title><g id="Layer_2" data-name="Layer 2"><g id="Layer_1-2" data-name="Layer 1"><line class="cls-1" x1="8.5" y1="23" x2="8.5" y2="25"/><line class="cls-1" x1="27.5" y1="23" x2="27.5" y2="25"/><path class="cls-1" d="M6.5,17v4a2,2,0,0,0,2,2h19a2,2,0,0,0,2-2V17"/><path class="cls-1" d="M26.5,17v1a1,1,0,0,1-1,1h-15a1,1,0,0,1-1-1V17"/><path class="cls-1" d="M27.5,15.56V15a4,4,0,0,0-4-4h-11a4,4,0,0,0-4,4v.58"/><path class="cls-1" d="M6.5,17a1.5,1.5,0,0,1,3,0"/><path class="cls-1" d="M29.5,17a1.5,1.5,0,0,0-3,0"/><line class="cls-1" x1="17.5" y1="11" x2="17.5" y2="19"/><circle class="cls-2" cx="18" cy="18" r="17.5"/></g></g></svg>