<svg xmlns="http://www.w3.org/2000/svg" viewBox="0 0 90.06 80.05"><defs><style>.cls-1{fill:#010101;}</style></defs><title>home</title><g id="Layer_2" data-name="Layer 2"><g id="Layer_1-2" data-name="Layer 1"><path class="cls-1" d="M44.88,0A3,3,0,0,0,43.22.6l-42,32a3,3,0,1,0,3.56,4.83l.06,0,5.19-4V77a3,3,0,0,0,6,.08S16,77,16,77V28.85L45,6.75,85.22,37.38a3,3,0,0,0,3.69-4.73l-.06,0-42-32A3,3,0,0,0,44.88,0ZM77,36.94a3,3,0,0,0-3,3V74H58V47a3,3,0,0,0-3-3H34.72A3,3,0,0,0,32,47V74H23a3,3,0,0,0-.08,6H77a3,3,0,0,0,3-3V40a3,3,0,0,0-2.94-3.06ZM38,50H52V74H38Z"/></g></g></svg>