<svg xmlns="http://www.w3.org/2000/svg" viewBox="0 0 24.5 24.5"><defs><style>.cls-1,.cls-2{fill:none;stroke:#636566;stroke-linejoin:round;stroke-width:1.5px;}.cls-2{stroke-linecap:round;}</style></defs><title>transport</title><g id="Layer_2" data-name="Layer 2"><g id="Layer_1-2" data-name="Layer 1"><path class="cls-1" d="M12.25.75c14,0,8,19,0,19S-1.75.75,12.25.75Z"/><polygon class="cls-1" points="7.75 9.75 16.75 9.75 18.75 5.75 5.75 5.75 7.75 9.75"/><path class="cls-1" d="M16.25,16.75a3.77,3.77,0,0,0-4-3.5,3.77,3.77,0,0,0-4,3.5,3.12,3.12,0,0,0,.66,1.88,6,6,0,0,0,3.34,1.12,6,6,0,0,0,3.34-1.12A3.12,3.12,0,0,0,16.25,16.75Z"/><line class="cls-2" x1="0.75" y1="23.75" x2="4.88" y2="13.36"/><line class="cls-2" x1="19.59" y1="13.42" x2="23.75" y2="23.75"/><line class="cls-1" x1="1.55" y1="21.75" x2="22.95" y2="21.75"/><line class="cls-1" x1="16.69" y1="17.75" x2="21.34" y2="17.75"/><line class="cls-1" x1="3.14" y1="17.75" x2="7.81" y2="17.75"/></g></g></svg>