<svg xmlns="http://www.w3.org/2000/svg" viewBox="0 0 65.93 90"><defs><style>.cls-1{fill:#010101;}</style></defs><title>transport</title><g id="Layer_2" data-name="Layer 2"><g id="Layer_1-2" data-name="Layer 1"><path class="cls-1" d="M55.72,17.47H9.87A1.78,1.78,0,0,0,8,19.35V48.1A1.78,1.78,0,0,0,9.87,50H55.72A1.78,1.78,0,0,0,57.6,48.1V19.35A1.88,1.88,0,0,0,55.72,17.47ZM53.84,46.22H11.75v-25H53.84Z"/><path class="cls-1" d="M15.7,56.93A7.74,7.74,0,0,0,8,64.63a7.62,7.62,0,0,0,7.7,7.7,7.7,7.7,0,1,0,0-15.41Zm0,11.46a3.95,3.95,0,1,1,0-7.89,3.85,3.85,0,0,1,3.95,3.95A4.1,4.1,0,0,1,15.7,68.39Z"/><path class="cls-1" d="M50.08,56.93a7.74,7.74,0,0,0-7.7,7.7,7.62,7.62,0,0,0,7.7,7.7,7.7,7.7,0,0,0,0-15.41Zm0,11.46A3.95,3.95,0,1,1,54,64.45,4.1,4.1,0,0,1,50.08,68.39Z"/><path class="cls-1" d="M65.11,86.81l-9-7.89h7.33A1.78,1.78,0,0,0,65.3,77V8.46C65.3.75,42.57,0,32.8,0S.48.75.48,8.46V77a1.78,1.78,0,0,0,1.88,1.88H9.69l-9,7.89a1.83,1.83,0,0,0-.19,2.63A2.13,2.13,0,0,0,2,90a3.48,3.48,0,0,0,1.32-.38L8,85.49H58.35L63,89.62a1.59,1.59,0,0,0,1.32.38,2.13,2.13,0,0,0,1.5-.56A2.92,2.92,0,0,0,65.11,86.81ZM4.24,8.46c0-1.32,8.46-4.7,28.75-4.7,20.1,0,28.75,3.38,28.75,4.7v66.7H4.24Zm7.7,73.47,3.38-2.82H50.46l3.38,2.82Z"/><path class="cls-1" d="M24.15,13.34H41.63a1.78,1.78,0,0,0,1.88-1.88,1.78,1.78,0,0,0-1.88-1.88H24.15a1.78,1.78,0,0,0-1.88,1.88A1.78,1.78,0,0,0,24.15,13.34Z"/></g></g></svg>