<svg xmlns="http://www.w3.org/2000/svg" viewBox="0 0 36 36"><defs><style>.cls-1,.cls-2,.cls-3{fill:none;stroke:#010101;}.cls-1,.cls-2{stroke-linejoin:round;}.cls-2{stroke-linecap:round;}.cls-3{stroke-miterlimit:10;}</style></defs><title>transport_1</title><g id="Layer_2" data-name="Layer 2"><g id="Layer_1-2" data-name="Layer 1"><path class="cls-1" d="M18,6.5c14,0,8,19,0,19S4,6.5,18,6.5Z"/><polygon class="cls-1" points="13.5 15.5 22.5 15.5 24.5 11.5 11.5 11.5 13.5 15.5"/><path class="cls-1" d="M22,22.5A3.77,3.77,0,0,0,18,19a3.77,3.77,0,0,0-4,3.5,3.12,3.12,0,0,0,.66,1.88A6,6,0,0,0,18,25.5a6,6,0,0,0,3.34-1.12A3.12,3.12,0,0,0,22,22.5Z"/><line class="cls-2" x1="6.5" y1="29.5" x2="10.63" y2="19.11"/><line class="cls-2" x1="25.34" y1="19.17" x2="29.5" y2="29.5"/><line class="cls-1" x1="7.3" y1="27.5" x2="28.7" y2="27.5"/><line class="cls-1" x1="22.44" y1="23.5" x2="27.09" y2="23.5"/><line class="cls-1" x1="8.89" y1="23.5" x2="13.56" y2="23.5"/><circle class="cls-3" cx="18" cy="18" r="17.5"/></g></g></svg>