<svg xmlns="http://www.w3.org/2000/svg" viewBox="0 0 50.84 90"><defs><style>.cls-1{fill:#010101;}</style></defs><title>walking</title><g id="Layer_2" data-name="Layer 2"><g id="Layer_1-2" data-name="Layer 1"><circle class="cls-1" cx="25.32" cy="7.94" r="7.94"/><path class="cls-1" d="M47.31,37A3.19,3.19,0,0,0,48,30.63,26.53,26.53,0,0,1,29.64,22a5.08,5.08,0,0,0-4.23-1.87h0a3.18,3.18,0,0,0-1.24.32h-.32C11.44,25.67.83,45.21.38,46a3.18,3.18,0,0,0,5.59,3A72.44,72.44,0,0,1,22.24,28.59c-.32,11-2.7,37.14-17.73,56.14a3.23,3.23,0,1,0,5,4.07h0A88.26,88.26,0,0,0,25.42,54C29.64,57.79,37.52,67.1,41.78,86.2A3.18,3.18,0,0,0,45,88.68h.7a3.18,3.18,0,0,0,2.41-3.78c-5.66-25.42-17.35-35.2-21.16-37.81A127.57,127.57,0,0,0,28.6,29.71,35.36,35.36,0,0,0,47.31,37Z"/></g></g></svg>