<svg xmlns="http://www.w3.org/2000/svg" viewBox="0 0 36 36"><defs><style>.cls-1,.cls-2,.cls-3{fill:none;stroke:#010101;}.cls-1{stroke-linecap:round;}.cls-1,.cls-2{stroke-linejoin:round;}.cls-3{stroke-miterlimit:10;}</style></defs><title>walking_1</title><g id="Layer_2" data-name="Layer 2"><g id="Layer_1-2" data-name="Layer 1"><path class="cls-1" d="M15.5,14l13.34,4.76a1,1,0,0,1,.66.94V22H6.5V15a1,1,0,0,1,1-1h1c0,.83,1.76,1.5,3.5,1.5C14.21,15.5,15.5,14.83,15.5,14Z"/><line class="cls-2" x1="6.5" y1="20" x2="29.5" y2="20"/><line class="cls-1" x1="18.08" y1="14.92" x2="17" y2="16"/><line class="cls-1" x1="19.92" y1="15.58" x2="19" y2="16.5"/><path class="cls-2" d="M23.5,16.86a1.13,1.13,0,0,1-1,1.14h-3A1.5,1.5,0,0,0,18,19.5V20"/><path class="cls-1" d="M9.5,20a3,3,0,0,0-3-3"/><circle class="cls-3" cx="18" cy="18" r="17.5"/></g></g></svg>