<svg xmlns="http://www.w3.org/2000/svg" viewBox="0 0 24.5 9.5"><defs><style>.cls-1,.cls-2{fill:none;stroke:#636566;stroke-linejoin:round;stroke-width:1.5px;}.cls-1{stroke-linecap:round;}</style></defs><title>walking</title><g id="Layer_2" data-name="Layer 2"><g id="Layer_1-2" data-name="Layer 1"><path class="cls-1" d="M9.75.75,23.09,5.51a1,1,0,0,1,.66.94V8.75H.75v-7a1,1,0,0,1,1-1h1c0,.83,1.76,1.5,3.5,1.5C8.46,2.25,9.75,1.58,9.75.75Z"/><line class="cls-2" x1="0.75" y1="6.75" x2="23.75" y2="6.75"/><line class="cls-1" x1="12.33" y1="1.67" x2="11.25" y2="2.75"/><line class="cls-1" x1="14.17" y1="2.33" x2="13.25" y2="3.25"/><path class="cls-2" d="M17.75,3.61a1.13,1.13,0,0,1-1,1.14h-3a1.5,1.5,0,0,0-1.5,1.5v.5"/><path class="cls-1" d="M3.75,6.75a3,3,0,0,0-3-3"/></g></g></svg>