<svg xmlns="http://www.w3.org/2000/svg" viewBox="0 0 36 36"><defs><style>.cls-1,.cls-2,.cls-3{fill:none;stroke:#010101;}.cls-1{stroke-linecap:round;}.cls-1,.cls-2{stroke-linejoin:round;}.cls-3{stroke-miterlimit:10;}</style></defs><title>working_1</title><g id="Layer_2" data-name="Layer 2"><g id="Layer_1-2" data-name="Layer 1"><line class="cls-1" x1="17.99" y1="29" x2="18" y2="23"/><path class="cls-2" d="M24,22a1,1,0,0,1-1,1H13a1,1,0,0,1-1-1V20.5a1,1,0,0,1,1-1,25.27,25.27,0,0,1,10,0,1,1,0,0,1,1,1Z"/><polyline class="cls-2" points="24 21 26 21 26 15"/><path class="cls-2" d="M24,15h4a2,2,0,0,0-4,0Z"/><polyline class="cls-2" points="12 21 10 21 10 15"/><path class="cls-2" d="M12,15H8a2,2,0,0,1,4,0Z"/><path class="cls-2" d="M22,19.32V9a2,2,0,0,0-2-2H16a2,2,0,0,0-2,2V19.33"/><line class="cls-1" x1="11" y1="29" x2="24.98" y2="29"/><line class="cls-2" x1="14" y1="10" x2="22" y2="10"/><circle class="cls-3" cx="18" cy="18" r="17.5"/></g></g></svg>