<svg xmlns="http://www.w3.org/2000/svg" viewBox="0 0 70 70"><defs><style>.cls-1{fill:#010101;}</style></defs><title>working</title><g id="Layer_2" data-name="Layer 2"><g id="Layer_1-2" data-name="Layer 1"><path class="cls-1" d="M67.08,32.08H37.92V26.25H52.5a2.93,2.93,0,0,0,2.92-2.92V2.92A2.93,2.93,0,0,0,52.5,0h-35a2.93,2.93,0,0,0-2.92,2.92V23.33a2.93,2.93,0,0,0,2.92,2.92H32.08v5.83H2.92A2.93,2.93,0,0,0,0,35V46.67a2.93,2.93,0,0,0,2.92,2.92H5.83v17.5a2.92,2.92,0,1,0,5.83,0V49.58H58.33v17.5a2.92,2.92,0,1,0,5.83,0V49.58h2.92A2.93,2.93,0,0,0,70,46.67V35A2.93,2.93,0,0,0,67.08,32.08ZM20.42,20.42V5.83H49.58V20.42ZM64.17,43.75H5.83V37.92H64.17Z"/></g></g></svg>