<svg xmlns="http://www.w3.org/2000/svg" viewBox="0 0 21.5 23.5"><defs><style>.cls-1,.cls-2{fill:none;stroke:#636566;stroke-linejoin:round;stroke-width:1.5px;}.cls-1{stroke-linecap:round;}</style></defs><title>working</title><g id="Layer_2" data-name="Layer 2"><g id="Layer_1-2" data-name="Layer 1"><line class="cls-1" x1="10.74" y1="22.75" x2="10.75" y2="16.75"/><path class="cls-2" d="M16.75,15.75a1,1,0,0,1-1,1h-10a1,1,0,0,1-1-1v-1.5a1,1,0,0,1,1-1,25.27,25.27,0,0,1,10,0,1,1,0,0,1,1,1Z"/><polyline class="cls-2" points="16.75 14.75 18.75 14.75 18.75 8.75"/><path class="cls-2" d="M16.75,8.75h4a2,2,0,0,0-4,0Z"/><polyline class="cls-2" points="4.75 14.75 2.75 14.75 2.75 8.75"/><path class="cls-2" d="M4.75,8.75h-4a2,2,0,0,1,4,0Z"/><path class="cls-2" d="M14.75,13.07V2.75a2,2,0,0,0-2-2h-4a2,2,0,0,0-2,2V13.08"/><line class="cls-1" x1="3.75" y1="22.75" x2="17.73" y2="22.75"/><line class="cls-2" x1="6.75" y1="3.75" x2="14.75" y2="3.75"/></g></g></svg>